<?xml version="1.0" encoding="UTF-8" standalone="no"?><!DOCTYPE svg PUBLIC "-//W3C//DTD SVG 1.1//EN" "http://www.w3.org/Graphics/SVG/1.1/DTD/svg11.dtd"><svg width="100%" height="100%" viewBox="0 0 152 28" version="1.1" xmlns="http://www.w3.org/2000/svg" xmlns:xlink="http://www.w3.org/1999/xlink" xml:space="preserve" style="fill-rule:evenodd;clip-rule:evenodd;stroke-linejoin:round;stroke-miterlimit:1.41421;"><rect x="0" y="0" width="152" height="28" style="fill:#737373;"/><path id="Designed-by-GraphicBiz" d="M56.375,18.185l0,-8.275c0.44,-0.117 0.927,-0.175 1.46,-0.175c1.063,0 1.846,0.358 2.348,1.075c0.501,0.717 0.752,1.713 0.752,2.988c0,1.475 -0.279,2.589 -0.838,3.343c-0.558,0.754 -1.389,1.132 -2.492,1.132c-0.43,0 -0.84,-0.03 -1.23,-0.088l0,0Zm0.86,-7.512l0,6.687c0.097,0.025 0.287,0.037 0.57,0.037c0.73,0 1.284,-0.299 1.663,-0.899c0.378,-0.6 0.567,-1.488 0.567,-2.663c0,-1.042 -0.178,-1.842 -0.535,-2.4c-0.357,-0.558 -0.888,-0.837 -1.595,-0.837c-0.233,0 -0.457,0.025 -0.67,0.075l0,0Z" style="fill:#999;fill-rule:nonzero;"/><path d="M65.335,15.347l-2.8,0c0.003,0.696 0.125,1.222 0.365,1.579c0.24,0.356 0.578,0.534 1.015,0.534c0.413,0 0.77,-0.087 1.07,-0.262l0.15,0.774c-0.37,0.226 -0.82,0.338 -1.35,0.338c-0.647,0 -1.157,-0.273 -1.53,-0.819c-0.373,-0.546 -0.56,-1.289 -0.56,-2.231c0,-0.954 0.182,-1.728 0.545,-2.322c0.363,-0.594 0.838,-0.89 1.425,-0.89c0.543,0 0.962,0.258 1.257,0.775c0.295,0.516 0.443,1.179 0.443,1.987c0,0.225 -0.01,0.404 -0.03,0.537Zm-2.79,-0.774l1.99,-0.001c0,-0.55 -0.084,-0.975 -0.252,-1.275c-0.169,-0.3 -0.398,-0.45 -0.688,-0.45c-0.287,0 -0.524,0.159 -0.712,0.475c-0.189,0.317 -0.301,0.734 -0.338,1.25l0,0.001Z" style="fill:#999;fill-rule:nonzero;"/><path d="M65.995,17.935l0.2,-0.813c0.327,0.25 0.653,0.375 0.98,0.375c0.26,0 0.462,-0.077 0.605,-0.231c0.143,-0.154 0.215,-0.364 0.215,-0.631c0,-0.246 -0.056,-0.453 -0.168,-0.622c-0.111,-0.169 -0.305,-0.336 -0.582,-0.503c-0.76,-0.471 -1.14,-1.046 -1.14,-1.725c0,-0.504 0.142,-0.92 0.425,-1.247c0.283,-0.327 0.652,-0.49 1.105,-0.49c0.377,0 0.72,0.112 1.03,0.337l-0.22,0.788c-0.253,-0.209 -0.527,-0.313 -0.82,-0.313c-0.213,0 -0.383,0.074 -0.51,0.222c-0.127,0.148 -0.19,0.336 -0.19,0.566c0,0.208 0.052,0.382 0.155,0.521c0.103,0.14 0.305,0.304 0.605,0.491c0.753,0.458 1.13,1.071 1.13,1.838c0,0.566 -0.149,1.01 -0.448,1.331c-0.298,0.321 -0.699,0.481 -1.202,0.481c-0.457,0 -0.847,-0.125 -1.17,-0.375l0,0Z" style="fill:#999;fill-rule:nonzero;"/><path d="M70.635,18.21l-0.86,0l0,-6.05l0.86,0l0,6.05Zm0.11,-7.825c0,0.212 -0.05,0.384 -0.15,0.516c-0.1,0.131 -0.233,0.196 -0.4,0.196c-0.157,0 -0.286,-0.066 -0.387,-0.2c-0.102,-0.133 -0.153,-0.304 -0.153,-0.512c0,-0.204 0.052,-0.374 0.155,-0.509c0.103,-0.136 0.232,-0.204 0.385,-0.204c0.163,0.001 0.296,0.067 0.398,0.2c0.101,0.134 0.152,0.305 0.152,0.513l0,0Z" style="fill:#999;fill-rule:nonzero;"/><path d="M75.455,13.947l0,3.438c0,0.879 -0.073,1.545 -0.22,1.997c-0.147,0.452 -0.387,0.797 -0.72,1.034c-0.333,0.238 -0.73,0.357 -1.19,0.357c-0.533,0 -0.983,-0.134 -1.35,-0.401l0.2,-0.837c0.353,0.25 0.743,0.375 1.17,0.375c0.84,0 1.26,-0.65 1.26,-1.95l0,-0.625l-0.02,0c-0.247,0.575 -0.653,0.862 -1.22,0.862c-0.51,0 -0.929,-0.278 -1.258,-0.834c-0.328,-0.556 -0.492,-1.27 -0.492,-2.14c0,-1.005 0.184,-1.785 0.552,-2.341c0.369,-0.556 0.805,-0.834 1.308,-0.834c0.543,0 0.943,0.3 1.2,0.899l0.02,0l0.04,-0.787l0.76,0c-0.027,0.55 -0.04,1.146 -0.04,1.787l0,0Zm-0.85,1.863l0,-1.413c0,-0.375 -0.09,-0.714 -0.27,-1.018c-0.18,-0.304 -0.42,-0.457 -0.72,-0.457c-0.34,0.001 -0.613,0.205 -0.82,0.613c-0.207,0.408 -0.31,0.954 -0.31,1.638c0,0.67 0.101,1.201 0.302,1.59c0.202,0.39 0.475,0.584 0.818,0.584c0.3,0 0.542,-0.146 0.725,-0.44c0.183,-0.294 0.275,-0.659 0.275,-1.097l0,0Z" style="fill:#999;fill-rule:nonzero;"/><path d="M76.705,18.21l0,-4.438c0,-0.429 -0.013,-0.966 -0.04,-1.612l0.76,0l0.04,0.862l0.02,0c0.3,-0.65 0.753,-0.975 1.36,-0.975c0.427,0 0.773,0.202 1.04,0.604c0.267,0.402 0.4,0.98 0.4,1.734l0,3.825l-0.86,0l0,-3.675c0,-1.058 -0.293,-1.588 -0.88,-1.588c-0.277,0.001 -0.509,0.144 -0.698,0.432c-0.188,0.287 -0.282,0.66 -0.282,1.118l0,3.713l-0.86,0l0,0Z" style="fill:#999;fill-rule:nonzero;"/><path d="M84.895,15.347l-2.8,0c0.003,0.696 0.125,1.222 0.365,1.579c0.24,0.356 0.578,0.534 1.015,0.534c0.413,0 0.77,-0.087 1.07,-0.262l0.15,0.774c-0.37,0.226 -0.82,0.338 -1.35,0.338c-0.647,0 -1.157,-0.273 -1.53,-0.819c-0.373,-0.546 -0.56,-1.289 -0.56,-2.231c0,-0.954 0.182,-1.728 0.545,-2.322c0.363,-0.594 0.838,-0.89 1.425,-0.89c0.543,0 0.963,0.258 1.258,0.775c0.295,0.516 0.442,1.179 0.442,1.987c0,0.225 -0.01,0.404 -0.03,0.537l0,0Zm-2.79,-0.774l1.99,-0.001c0,-0.55 -0.084,-0.975 -0.252,-1.275c-0.169,-0.3 -0.398,-0.45 -0.688,-0.45c-0.287,0 -0.524,0.159 -0.713,0.475c-0.188,0.317 -0.3,0.734 -0.337,1.25l0,0.001Z" style="fill:#999;fill-rule:nonzero;"/><path d="M88.605,9.447l0.86,0l0,7.238c0,0.475 0.013,0.983 0.04,1.525l-0.76,0l-0.05,-0.9l-0.02,0c-0.283,0.675 -0.727,1.012 -1.33,1.012c-0.51,0 -0.928,-0.282 -1.253,-0.846c-0.325,-0.565 -0.487,-1.312 -0.487,-2.241c0,-0.971 0.174,-1.745 0.522,-2.322c0.349,-0.577 0.781,-0.866 1.298,-0.866c0.547,0 0.933,0.267 1.16,0.8l0.02,0l0,-3.4l0,0Zm0,6.425l0,-1.325c0,-0.479 -0.094,-0.869 -0.282,-1.171c-0.189,-0.302 -0.428,-0.454 -0.718,-0.454c-0.35,0 -0.626,0.21 -0.828,0.629c-0.201,0.418 -0.302,0.971 -0.302,1.659c0,0.65 0.096,1.183 0.288,1.6c0.191,0.417 0.462,0.625 0.812,0.625c0.313,0 0.563,-0.16 0.75,-0.481c0.187,-0.321 0.28,-0.681 0.28,-1.082l0,0Z" style="fill:#999;fill-rule:nonzero;"/><path d="M92.555,16.685l0,-7.238l0.86,0l0,3.55l0.02,0c0.287,-0.633 0.73,-0.95 1.33,-0.95c0.5,0 0.907,0.279 1.22,0.835c0.313,0.556 0.47,1.299 0.47,2.228c0,0.992 -0.176,1.775 -0.527,2.35c-0.352,0.575 -0.786,0.862 -1.303,0.862c-0.573,0 -1.003,-0.333 -1.29,-1l-0.03,0l-0.05,0.888l-0.74,0c0.027,-0.542 0.04,-1.05 0.04,-1.525l0,0Zm0.86,-2.137l0,1.374c0,0.421 0.1,0.781 0.3,1.079c0.2,0.298 0.443,0.446 0.73,0.446c0.357,0 0.636,-0.204 0.837,-0.612c0.202,-0.408 0.303,-0.967 0.303,-1.675c0,-0.667 -0.101,-1.204 -0.303,-1.613c-0.201,-0.408 -0.477,-0.612 -0.827,-0.612c-0.277,0 -0.519,0.156 -0.728,0.469c-0.208,0.312 -0.312,0.693 -0.312,1.143l0,0.001Z" style="fill:#999;fill-rule:nonzero;"/><path d="M96.845,12.16l0.93,0c0.45,1.85 0.733,3.047 0.847,3.591c0.116,0.543 0.193,0.921 0.233,1.134l0.02,0l1,-4.725l0.89,0l-1.135,4.412c-0.277,1.067 -0.532,1.886 -0.767,2.457c-0.236,0.571 -0.488,1 -0.758,1.287c-0.27,0.288 -0.543,0.486 -0.82,0.594l-0.26,-0.913c0.4,-0.212 0.728,-0.552 0.985,-1.018c0.257,-0.467 0.385,-0.798 0.385,-0.994c0,-0.042 -0.017,-0.125 -0.05,-0.25l-1.5,-5.575l0,0Z" style="fill:#999;fill-rule:nonzero;"/><path d="M107.625,13.772l0,4.138c-0.543,0.25 -1.093,0.375 -1.65,0.375c-0.963,0 -1.694,-0.383 -2.192,-1.15c-0.499,-0.767 -0.748,-1.783 -0.748,-3.05c0,-1.396 0.291,-2.474 0.873,-3.234c0.581,-0.761 1.324,-1.141 2.227,-1.141c0.53,0 0.977,0.104 1.34,0.312l-0.2,0.9c-0.317,-0.191 -0.697,-0.287 -1.14,-0.287c-0.673,0 -1.208,0.294 -1.605,0.881c-0.397,0.588 -0.595,1.419 -0.595,2.494c0,1.079 0.185,1.911 0.555,2.497c0.37,0.585 0.875,0.878 1.515,0.878c0.347,0 0.61,-0.05 0.79,-0.15l0,-2.588l-1.09,0l0,-0.874l1.92,0l0,-0.001Z" style="fill:#999;fill-rule:nonzero;"/><path d="M108.745,18.21l0,-4.313c0,-0.487 -0.013,-1.066 -0.04,-1.737l0.76,0l0.04,1.062l0.03,0c0.1,-0.362 0.258,-0.648 0.475,-0.859c0.217,-0.21 0.448,-0.316 0.695,-0.316l0.21,0.013l0,1.062c-0.037,-0.016 -0.113,-0.024 -0.23,-0.024c-0.297,-0.001 -0.551,0.154 -0.762,0.462c-0.212,0.308 -0.318,0.767 -0.318,1.375l0,3.275l-0.86,0l0,0Z" style="fill:#999;fill-rule:nonzero;"/><path d="M114.625,14.372l0,2.425c0,0.625 0.02,1.096 0.06,1.413l-0.77,0l-0.07,-0.7l-0.02,0c-0.293,0.542 -0.703,0.812 -1.23,0.812c-0.393,0 -0.712,-0.164 -0.955,-0.493c-0.243,-0.329 -0.365,-0.744 -0.365,-1.244c0,-0.729 0.224,-1.282 0.672,-1.659c0.449,-0.377 1.055,-0.566 1.818,-0.566l0,-0.15c0,-0.9 -0.31,-1.35 -0.93,-1.35c-0.383,0 -0.73,0.129 -1.04,0.387l-0.19,-0.737c0.39,-0.308 0.853,-0.463 1.39,-0.463c1.087,0 1.63,0.775 1.63,2.325l0,0Zm-0.84,1.863l0,-1.125c-1.107,0 -1.66,0.454 -1.66,1.363c0,0.345 0.067,0.605 0.203,0.778c0.135,0.173 0.3,0.259 0.497,0.259c0.273,0 0.502,-0.125 0.685,-0.375c0.183,-0.25 0.275,-0.55 0.275,-0.9l0,0Z" style="fill:#999;fill-rule:nonzero;"/><path d="M115.865,20.648l0,-6.563c0,-0.638 -0.013,-1.279 -0.04,-1.925l0.77,0l0.04,0.9l0.02,0c0.307,-0.675 0.763,-1.013 1.37,-1.013c0.51,0 0.926,0.282 1.248,0.844c0.321,0.563 0.482,1.311 0.482,2.244c0,0.996 -0.175,1.776 -0.525,2.341c-0.35,0.564 -0.792,0.846 -1.325,0.846c-0.517,0 -0.903,-0.27 -1.16,-0.812l-0.02,0l0,3.138l-0.86,0l0,0Zm0.86,-6.075l0,1.287c0,0.467 0.097,0.848 0.292,1.144c0.195,0.296 0.438,0.444 0.728,0.444c0.357,0 0.636,-0.206 0.838,-0.616c0.201,-0.411 0.302,-0.964 0.302,-1.659c0,-0.671 -0.1,-1.212 -0.3,-1.622c-0.2,-0.411 -0.473,-0.616 -0.82,-0.616c-0.277,0 -0.519,0.157 -0.728,0.472c-0.208,0.314 -0.312,0.703 -0.312,1.166l0,0Z" style="fill:#999;fill-rule:nonzero;"/><path d="M120.745,18.21l0,-8.763l0.86,0l0,3.5l0.02,0c0.317,-0.6 0.747,-0.9 1.29,-0.9c0.413,0 0.752,0.205 1.015,0.613c0.263,0.408 0.395,0.996 0.395,1.762l0,3.788l-0.86,0l0,-3.675c0,-1.058 -0.29,-1.588 -0.87,-1.588c-0.28,0.001 -0.515,0.146 -0.705,0.438c-0.19,0.292 -0.285,0.642 -0.285,1.05l0,3.775l-0.86,0Z" style="fill:#999;fill-rule:nonzero;"/><path d="M126.435,18.21l-0.86,0l0,-6.05l0.86,0l0,6.05Zm0.11,-7.825c0,0.212 -0.05,0.384 -0.15,0.516c-0.1,0.131 -0.233,0.196 -0.4,0.196c-0.157,0 -0.286,-0.066 -0.388,-0.2c-0.101,-0.133 -0.152,-0.304 -0.152,-0.512c0,-0.204 0.052,-0.374 0.155,-0.509c0.103,-0.136 0.232,-0.204 0.385,-0.204c0.163,0.001 0.296,0.067 0.398,0.2c0.101,0.134 0.152,0.305 0.152,0.513l0,0Z" style="fill:#999;fill-rule:nonzero;"/><path d="M130.485,17.21l0.13,0.813c-0.293,0.191 -0.66,0.287 -1.1,0.287c-0.637,0 -1.146,-0.276 -1.528,-0.828c-0.381,-0.552 -0.572,-1.301 -0.572,-2.247c0,-0.938 0.208,-1.703 0.625,-2.297c0.417,-0.594 0.965,-0.89 1.645,-0.89c0.363,0 0.68,0.083 0.95,0.25l-0.17,0.849c-0.24,-0.149 -0.503,-0.224 -0.79,-0.224c-0.423,0 -0.761,0.214 -1.013,0.643c-0.251,0.429 -0.377,0.977 -0.377,1.644c0,0.679 0.127,1.22 0.382,1.622c0.255,0.402 0.591,0.603 1.008,0.603c0.293,0 0.563,-0.075 0.81,-0.225l0,0Z" style="fill:#999;fill-rule:nonzero;"/><path d="M131.505,18.185l0,-8.275c0.38,-0.117 0.84,-0.175 1.38,-0.175c0.75,0 1.303,0.189 1.658,0.566c0.355,0.377 0.532,0.876 0.532,1.497c0,0.412 -0.094,0.784 -0.282,1.115c-0.189,0.331 -0.455,0.58 -0.798,0.747l0,0.037c0.41,0.134 0.733,0.389 0.968,0.766c0.235,0.377 0.352,0.83 0.352,1.359c0,0.705 -0.199,1.289 -0.597,1.754c-0.399,0.464 -1.07,0.697 -2.013,0.697c-0.41,0 -0.81,-0.03 -1.2,-0.088l0,0Zm0.86,-7.563l0,2.725l0.56,0c0.377,0 0.686,-0.135 0.928,-0.406c0.241,-0.271 0.362,-0.614 0.362,-1.031c0,-0.437 -0.108,-0.772 -0.325,-1.003c-0.217,-0.231 -0.532,-0.347 -0.945,-0.347c-0.253,0 -0.447,0.021 -0.58,0.063l0,-0.001Zm0,3.538l0,3.225c0.113,0.033 0.297,0.05 0.55,0.05c0.467,0 0.833,-0.141 1.1,-0.422c0.267,-0.281 0.4,-0.682 0.4,-1.203c0,-0.542 -0.145,-0.952 -0.435,-1.231c-0.29,-0.279 -0.655,-0.419 -1.095,-0.419l-0.52,0l0,0Z" style="fill:#999;fill-rule:nonzero;"/><path d="M137.145,18.21l-0.86,0l0,-6.05l0.86,0l0,6.05Zm0.11,-7.825c0,0.212 -0.05,0.384 -0.15,0.516c-0.1,0.131 -0.233,0.196 -0.4,0.196c-0.157,0 -0.286,-0.066 -0.387,-0.2c-0.102,-0.133 -0.153,-0.304 -0.153,-0.512c0,-0.204 0.052,-0.374 0.155,-0.509c0.103,-0.136 0.232,-0.204 0.385,-0.204c0.163,0.001 0.296,0.067 0.398,0.2c0.101,0.134 0.152,0.305 0.152,0.513l0,0Z" style="fill:#999;fill-rule:nonzero;"/><path d="M137.945,18.21l0,-0.65l1.315,-2.563c0.383,-0.754 0.643,-1.251 0.778,-1.49c0.135,-0.24 0.217,-0.389 0.247,-0.447l0,-0.025l-2.15,0l0,-0.875l3.16,0l0,0.687c-1.403,2.73 -2.177,4.217 -2.32,4.463l0,0.025l2.34,0l0,0.875l-3.37,0Z" style="fill:#999;fill-rule:nonzero;"/><rect x="22.998" y="8.003" width="11.996" height="11.996" style="fill:#c00;"/><path d="M28.997,0l-28.997,0l-0.001,28l46.998,0l0,-13.998l-11.999,0l-0.001,5.997l-5.999,0l0,8.001l-11.999,0l0,-25.997l11.999,-0.003l-0.001,-2l0,0Z" style="fill:#262626;"/></svg>